<?xml version="1.0" encoding="UTF-8" standalone="no"?>
<!DOCTYPE svg PUBLIC "-//W3C//DTD SVG 1.1//EN" "http://www.w3.org/Graphics/SVG/1.1/DTD/svg11.dtd">
<svg width="100%" height="100%" viewBox="0 0 512 512" version="1.1" xmlns="http://www.w3.org/2000/svg" xmlns:xlink="http://www.w3.org/1999/xlink" xml:space="preserve" xmlns:serif="http://www.serif.com/" style="fill-rule:evenodd;clip-rule:evenodd;stroke-linejoin:round;stroke-miterlimit:2;">
    <rect x="0" y="0" width="512" height="512" style="fill:rgb(217,253,248);"/>
    <g id="dark-squares">
        <rect x="0" y="0" width="256" height="256" style="fill:rgb(98,177,168);"/>
        <rect x="256" y="256" width="256" height="256" style="fill:rgb(98,177,168);"/>
    </g>
    <g transform="matrix(1,0,0,1,0,-2.844559)">
        <g transform="matrix(0.009869,0,0,-0.009869,210.044512,325.454318)">
            <g id="bishop">
                <path d="M4158,16539C4098,16529 4038,16514 4023,16506C3988,16488 3750,16248 3717,16198L3692,16161L3711,16053C3824,15416 3972,14655 4180,13635C4414,12485 4453,12259 4454,12025C4454,11868 4437,11802 4378,11735C4333,11684 4287,11666 4219,11672C4078,11686 3992,11835 3921,12185C3886,12359 3872,12449 3825,12770C3774,13122 3630,14209 3630,14243C3630,14250 3608,14272 3581,14292L3531,14328L3453,14262C3356,14179 3161,13982 3070,13875C2970,13757 2814,13547 2740,13428C2655,13294 2515,13012 2468,12884C2421,12754 2375,12578 2347,12420C2318,12247 2315,11827 2344,11645C2382,11395 2444,11201 2560,10965C2673,10735 2831,10503 3006,10312L3055,10259L3663,10266L4270,10273L5736.664,10282.075C5789.238,10282.947 5784,10280 5924,10280L6178,10280L6232,10348C6542,10733 6722,11132 6787,11575C6811,11745 6811,12152 6787,12345C6728,12799 6599,13166 6338,13615C6196,13859 5964,14191 5807,14375C5522,14709 5134,15076 4776,15350C4722,15391 4666,15435 4651,15447L4625,15469L4675,15511C4847,15655 5040,15885 5040,15945C5040,16014 4934,16256 4850,16380C4827,16414 4787,16464 4761,16490C4717,16535 4711,16538 4637,16549C4517,16566 4283,16562 4158,16539ZM4388,16164C4457,16149 4458,16148 4474,16105C4503,16030 4504,15998 4480,15947C4451,15887 4400,15844 4331,15824C4267,15805 4216,15810 4152,15842C4109,15863 4104,15869 4096,15911C4074,16026 4121,16108 4235,16155C4307,16184 4300,16184 4388,16164ZM6230,10191C6230,10180 6216.264,10144.84 6203.264,10128.84L6181,10114L4628,10101C3625,10093 3066,10092 3050,10098C3015,10112 2999,10133 2998,10169C2997,10186 2994,10200 2991,10200C2988,10200 2958,10185 2925,10166C2843,10121 2805,10061 2805,9976C2805,9928 2811,9905 2833,9868C2873,9799 2896,9786 3009,9765C3066,9755 3116,9740 3123,9732C3140,9711 3140,9384 3122,9353C3113,9336 3083,9323 3007,9300C2882,9262 2822,9233 2797,9199C2770,9161 2763,9058 2785,9000C2794,8975 2803,8948 2806,8940C2809,8930 2769,8894 2686,8833C2523,8711 2525,8715 2525,8495C2525,8342 2527,8321 2546,8285C2584,8211 2612,8240.989 2917,8211.989C3385,8168.989 3369,8135 3394,8047C3415,7976 3456,7750 3474,7605C3545,7049 3421.011,5381.096 2385.356,4033.409C3421.011,5381.096 2009.997,3581.859 2009.997,3581.859C2009.997,3581.859 1790.287,3367.106 1725.287,3299.106C1697.287,3270.106 1674.287,3245.106 1674.287,3243.106C1674.287,3241.106 3569,3240.106 4632,3240.106L7588.713,3240.106L7528.713,3303.106C7316.907,3523.499 6608.077,4139.323 6364.647,4692.235C6069.528,5362.55 5877.431,6762.206 5795.989,7325C5760.028,7573.511 5843,7988 5876,8069C5884,8089 5900,8111 5912,8119C5926,8128 6058,8144 6276,8165C6643,8201 6660,8205 6704,8262C6742,8313 6752,8372 6748,8526C6744,8723 6742,8726 6540,8852C6499,8877 6454,8907 6440,8918L6415,8938L6434,8976C6445,8998 6455,9046 6457,9085C6461,9145 6458,9161 6438,9200C6405,9261 6371,9281 6247,9314C6188,9330 6134,9348 6125,9354C6099,9373 6077,9560 6089,9655C6096,9706 6106,9739 6116,9747C6124,9753 6166,9766 6208,9775C6318,9798 6357,9818 6389,9864C6424,9915 6433,9942 6432,9996C6430,10088 6371,10156 6255,10200C6234,10208 6230,10207 6230,10191ZM6226,9195C6288,9169 6300,9099 6249,9056L6218,9030L5182,9030C4612,9030 3886,9027 3570,9023L2995,9017L2965,9042C2926,9076 2925,9129 2963,9167L2990,9194L3737,9200C5175,9212 6190,9210 6226,9195ZM1646.212,3062.106C1643.212,3057.106 1647.212,3027.106 1655.212,2994.106C1695.212,2826.106 1683.212,2665.106 1620.212,2535.106C1569.212,2429.106 1497.212,2352.106 1237.212,2126.106C1030.212,1946.106 973.212,1887.106 932.212,1805.106C849.212,1638.106 849.212,1431.106 933.212,1287.106C972.212,1221.106 1076.212,1129.106 1167.212,1082.106L1248.212,1040.106L8029.788,1040.106L8102.788,1076.106C8312.788,1181.106 8412.788,1329.106 8413.788,1535.106C8413.788,1602.106 8408.788,1645.106 8390.788,1700.106C8346.788,1844.106 8300.788,1904.106 8105.788,2072.106C7788.788,2346.106 7722.788,2416.106 7657.788,2544.106C7624.788,2610.106 7599.788,2724.106 7599.788,2808.106C7600.788,2860.106 7617.788,2976.106 7634.788,3043.106L7641.788,3070.106L4647,3070.106C3417,3070.106 1649.212,3066.106 1646.212,3062.106ZM1425.106,869.106L379.287,644.106L379.287,155.106L4638,152.106L8933.703,150.106L8933.703,397.106L8932.703,645.106L7840.894,870.106L4633,869.106L1425.106,869.106Z" style="fill:url(#_Linear1);fill-rule:nonzero;"/>
            </g>
        </g>
        <g transform="matrix(0.865428,0,-0,0.865428,57.205572,-14.133024)">
            <g transform="matrix(28,0,0,28,159.279612,425.71876)">
                <path d="M0.269,-0.33L0.239,-0.362L0.254,-0.376C0.301,-0.421 0.342,-0.452 0.377,-0.47C0.411,-0.488 0.443,-0.497 0.472,-0.497C0.517,-0.497 0.553,-0.482 0.58,-0.453C0.607,-0.423 0.621,-0.385 0.621,-0.337L0.621,-0.105C0.621,-0.092 0.622,-0.082 0.624,-0.077C0.626,-0.071 0.63,-0.067 0.635,-0.065L0.645,-0.06C0.653,-0.057 0.659,-0.052 0.662,-0.048C0.665,-0.043 0.667,-0.037 0.667,-0.03C0.667,-0.021 0.664,-0.013 0.658,-0.008C0.652,-0.003 0.642,-0 0.629,-0L0.408,-0C0.382,-0 0.369,-0.011 0.369,-0.032C0.369,-0.044 0.374,-0.053 0.386,-0.06L0.396,-0.065C0.401,-0.068 0.404,-0.072 0.406,-0.077C0.408,-0.082 0.409,-0.092 0.409,-0.105L0.409,-0.307C0.409,-0.328 0.404,-0.344 0.394,-0.355C0.384,-0.366 0.371,-0.371 0.353,-0.371C0.342,-0.371 0.331,-0.369 0.319,-0.364C0.306,-0.36 0.296,-0.354 0.287,-0.346L0.269,-0.33ZM0.287,-0.71L0.287,-0.105C0.287,-0.092 0.288,-0.082 0.29,-0.077C0.292,-0.072 0.295,-0.068 0.3,-0.065L0.31,-0.06C0.322,-0.053 0.327,-0.044 0.327,-0.032C0.327,-0.011 0.314,-0 0.288,-0L0.067,-0C0.054,-0 0.044,-0.003 0.038,-0.008C0.032,-0.013 0.029,-0.021 0.029,-0.03C0.029,-0.037 0.031,-0.043 0.034,-0.048C0.037,-0.052 0.043,-0.057 0.051,-0.06L0.061,-0.065C0.067,-0.067 0.07,-0.071 0.072,-0.077C0.074,-0.082 0.075,-0.092 0.075,-0.105L0.075,-0.598C0.075,-0.609 0.074,-0.616 0.071,-0.621C0.068,-0.625 0.064,-0.628 0.058,-0.63L0.047,-0.634C0.04,-0.636 0.035,-0.639 0.032,-0.643C0.029,-0.648 0.027,-0.653 0.027,-0.66C0.027,-0.668 0.029,-0.674 0.034,-0.679C0.038,-0.684 0.046,-0.688 0.058,-0.693L0.169,-0.736C0.186,-0.743 0.2,-0.748 0.21,-0.751C0.221,-0.753 0.231,-0.755 0.241,-0.755C0.256,-0.755 0.267,-0.751 0.275,-0.742C0.283,-0.734 0.287,-0.723 0.287,-0.71Z" style="fill:url(#_Linear2);fill-rule:nonzero;"/>
            </g>
            <g transform="matrix(28,0,0,28,159.279612,425.71876)">
            </g>
            <g transform="matrix(28,0,0,28,194.167612,425.71876)">
                <path d="M0.267,-0.433C0.247,-0.433 0.232,-0.429 0.223,-0.421C0.213,-0.413 0.208,-0.403 0.208,-0.391C0.208,-0.384 0.21,-0.377 0.212,-0.371C0.215,-0.365 0.221,-0.359 0.231,-0.354C0.241,-0.349 0.256,-0.345 0.277,-0.342C0.339,-0.331 0.386,-0.317 0.418,-0.3C0.451,-0.283 0.473,-0.263 0.485,-0.24C0.497,-0.216 0.503,-0.19 0.503,-0.16C0.503,-0.106 0.484,-0.063 0.446,-0.032C0.408,-0.001 0.352,0.014 0.278,0.014C0.253,0.014 0.232,0.012 0.217,0.008C0.202,0.004 0.19,0 0.181,-0.004C0.172,-0.008 0.163,-0.01 0.156,-0.01C0.148,-0.01 0.141,-0.008 0.136,-0.004C0.131,0 0.125,0.004 0.12,0.008C0.115,0.012 0.108,0.014 0.1,0.014C0.091,0.014 0.085,0.012 0.081,0.007C0.077,0.002 0.073,-0.007 0.069,-0.019L0.043,-0.107C0.038,-0.125 0.036,-0.139 0.038,-0.149C0.041,-0.159 0.047,-0.167 0.058,-0.171C0.068,-0.174 0.077,-0.175 0.086,-0.171C0.094,-0.167 0.101,-0.16 0.108,-0.149C0.124,-0.127 0.14,-0.108 0.156,-0.093C0.173,-0.079 0.19,-0.068 0.208,-0.06C0.226,-0.053 0.245,-0.05 0.265,-0.05C0.287,-0.05 0.304,-0.054 0.315,-0.062C0.326,-0.07 0.332,-0.082 0.332,-0.096C0.332,-0.104 0.329,-0.112 0.325,-0.118C0.32,-0.124 0.311,-0.13 0.297,-0.135C0.283,-0.14 0.263,-0.145 0.235,-0.15C0.186,-0.159 0.148,-0.172 0.119,-0.188C0.091,-0.204 0.07,-0.224 0.058,-0.248C0.046,-0.272 0.04,-0.299 0.04,-0.331C0.04,-0.365 0.049,-0.394 0.067,-0.419C0.085,-0.444 0.11,-0.463 0.141,-0.477C0.173,-0.49 0.209,-0.497 0.249,-0.497C0.275,-0.497 0.296,-0.495 0.311,-0.491C0.326,-0.487 0.339,-0.482 0.348,-0.478C0.358,-0.474 0.367,-0.472 0.377,-0.472C0.386,-0.472 0.393,-0.474 0.399,-0.478C0.405,-0.482 0.412,-0.487 0.417,-0.491C0.423,-0.495 0.431,-0.497 0.439,-0.497C0.446,-0.497 0.452,-0.494 0.457,-0.489C0.462,-0.484 0.466,-0.474 0.468,-0.462L0.483,-0.376C0.486,-0.359 0.487,-0.346 0.484,-0.338C0.482,-0.329 0.476,-0.323 0.466,-0.319C0.456,-0.315 0.447,-0.315 0.439,-0.319C0.431,-0.324 0.422,-0.332 0.414,-0.344C0.391,-0.377 0.366,-0.401 0.341,-0.414C0.315,-0.427 0.29,-0.433 0.267,-0.433Z" style="fill:url(#_Linear3);fill-rule:nonzero;"/>
            </g>
            <g transform="matrix(28,0,0,28,194.167612,425.71876)">
            </g>
            <g transform="matrix(28,0,0,28,209.077612,425.71876)">
                <path d="M0.267,-0.433C0.247,-0.433 0.232,-0.429 0.223,-0.421C0.213,-0.413 0.208,-0.403 0.208,-0.391C0.208,-0.384 0.21,-0.377 0.212,-0.371C0.215,-0.365 0.221,-0.359 0.231,-0.354C0.241,-0.349 0.256,-0.345 0.277,-0.342C0.339,-0.331 0.386,-0.317 0.418,-0.3C0.451,-0.283 0.473,-0.263 0.485,-0.24C0.497,-0.216 0.503,-0.19 0.503,-0.16C0.503,-0.106 0.484,-0.063 0.446,-0.032C0.408,-0.001 0.352,0.014 0.278,0.014C0.253,0.014 0.232,0.012 0.217,0.008C0.202,0.004 0.19,0 0.181,-0.004C0.172,-0.008 0.163,-0.01 0.156,-0.01C0.148,-0.01 0.141,-0.008 0.136,-0.004C0.131,0 0.125,0.004 0.12,0.008C0.115,0.012 0.108,0.014 0.1,0.014C0.091,0.014 0.085,0.012 0.081,0.007C0.077,0.002 0.073,-0.007 0.069,-0.019L0.043,-0.107C0.038,-0.125 0.036,-0.139 0.038,-0.149C0.041,-0.159 0.047,-0.167 0.058,-0.171C0.068,-0.174 0.077,-0.175 0.086,-0.171C0.094,-0.167 0.101,-0.16 0.108,-0.149C0.124,-0.127 0.14,-0.108 0.156,-0.093C0.173,-0.079 0.19,-0.068 0.208,-0.06C0.226,-0.053 0.245,-0.05 0.265,-0.05C0.287,-0.05 0.304,-0.054 0.315,-0.062C0.326,-0.07 0.332,-0.082 0.332,-0.096C0.332,-0.104 0.329,-0.112 0.325,-0.118C0.32,-0.124 0.311,-0.13 0.297,-0.135C0.283,-0.14 0.263,-0.145 0.235,-0.15C0.186,-0.159 0.148,-0.172 0.119,-0.188C0.091,-0.204 0.07,-0.224 0.058,-0.248C0.046,-0.272 0.04,-0.299 0.04,-0.331C0.04,-0.365 0.049,-0.394 0.067,-0.419C0.085,-0.444 0.11,-0.463 0.141,-0.477C0.173,-0.49 0.209,-0.497 0.249,-0.497C0.275,-0.497 0.296,-0.495 0.311,-0.491C0.326,-0.487 0.339,-0.482 0.348,-0.478C0.358,-0.474 0.367,-0.472 0.377,-0.472C0.386,-0.472 0.393,-0.474 0.399,-0.478C0.405,-0.482 0.412,-0.487 0.417,-0.491C0.423,-0.495 0.431,-0.497 0.439,-0.497C0.446,-0.497 0.452,-0.494 0.457,-0.489C0.462,-0.484 0.466,-0.474 0.468,-0.462L0.483,-0.376C0.486,-0.359 0.487,-0.346 0.484,-0.338C0.482,-0.329 0.476,-0.323 0.466,-0.319C0.456,-0.315 0.447,-0.315 0.439,-0.319C0.431,-0.324 0.422,-0.332 0.414,-0.344C0.391,-0.377 0.366,-0.401 0.341,-0.414C0.315,-0.427 0.29,-0.433 0.267,-0.433Z" style="fill:url(#_Linear4);fill-rule:nonzero;"/>
            </g>
            <g transform="matrix(28,0,0,28,209.077612,425.71876)">
            </g>
            <g transform="matrix(28,0,0,28,320.349612,425.71876)">
            </g>
            <text x="139.064px" y="425.719px" style="font-family:'Fraunces-9ptBlack', 'Fraunces';font-weight:900;font-size:28px;fill:url(#_Linear5);">C<tspan x="178.488px 223.988px " y="425.719px 425.719px ">eN</tspan>otate</text>
        </g>
    </g>
    <defs>
        <linearGradient id="_Linear1" x1="0" y1="0" x2="1" y2="0" gradientUnits="userSpaceOnUse" gradientTransform="matrix(10447.078549,-4900.629574,-4900.629574,-10447.078549,1484.381747,7974.888374)"><stop offset="0" style="stop-color:black;stop-opacity:1"/><stop offset="1" style="stop-color:rgb(77,77,77);stop-opacity:1"/></linearGradient>
        <linearGradient id="_Linear2" x1="0" y1="0" x2="1" y2="0" gradientUnits="userSpaceOnUse" gradientTransform="matrix(9.563164,5.020661,-5.020661,9.563164,1.200315,1.117068)"><stop offset="0" style="stop-color:black;stop-opacity:1"/><stop offset="0.35" style="stop-color:rgb(66,66,66);stop-opacity:1"/><stop offset="1" style="stop-color:rgb(77,77,77);stop-opacity:1"/></linearGradient>
        <linearGradient id="_Linear3" x1="0" y1="0" x2="1" y2="0" gradientUnits="userSpaceOnUse" gradientTransform="matrix(9.563164,5.020661,-5.020661,9.563164,-0.045685,1.117068)"><stop offset="0" style="stop-color:black;stop-opacity:1"/><stop offset="0.35" style="stop-color:rgb(66,66,66);stop-opacity:1"/><stop offset="1" style="stop-color:rgb(77,77,77);stop-opacity:1"/></linearGradient>
        <linearGradient id="_Linear4" x1="0" y1="0" x2="1" y2="0" gradientUnits="userSpaceOnUse" gradientTransform="matrix(9.563164,5.020661,-5.020661,9.563164,-0.578185,1.117068)"><stop offset="0" style="stop-color:black;stop-opacity:1"/><stop offset="0.35" style="stop-color:rgb(66,66,66);stop-opacity:1"/><stop offset="1" style="stop-color:rgb(77,77,77);stop-opacity:1"/></linearGradient>
        <linearGradient id="_Linear5" x1="0" y1="0" x2="1" y2="0" gradientUnits="userSpaceOnUse" gradientTransform="matrix(267.768595,140.578512,-140.578512,267.768595,192.88843,456.996673)"><stop offset="0" style="stop-color:black;stop-opacity:1"/><stop offset="0.35" style="stop-color:rgb(66,66,66);stop-opacity:1"/><stop offset="1" style="stop-color:rgb(77,77,77);stop-opacity:1"/></linearGradient>
    </defs>
</svg>
